<svg xmlns="http://www.w3.org/2000/svg" width="1600" height="1000" viewBox="0 0 1600 1000">
  <defs>
    <linearGradient id="bg" x1="0" y1="0" x2="1" y2="1">
      <stop offset="0" stop-color="#111820"/>
      <stop offset="0.55" stop-color="#182127"/>
      <stop offset="1" stop-color="#0d1217"/>
    </linearGradient>
    <radialGradient id="lava1" cx="50%" cy="50%" r="50%"><stop offset="0" stop-color="#4FBDB5" stop-opacity="0.42"/><stop offset="1" stop-color="#4FBDB5" stop-opacity="0"/></radialGradient>
    <radialGradient id="lava2" cx="50%" cy="50%" r="50%"><stop offset="0" stop-color="#E87545" stop-opacity="0.36"/><stop offset="1" stop-color="#E87545" stop-opacity="0"/></radialGradient>
    <radialGradient id="lava3" cx="50%" cy="50%" r="50%"><stop offset="0" stop-color="#8E7DE8" stop-opacity="0.32"/><stop offset="1" stop-color="#8E7DE8" stop-opacity="0"/></radialGradient>
    <filter id="blur"><feGaussianBlur stdDeviation="36"/></filter>
    <style>
      .box{fill:rgba(243,240,232,0.055);stroke:rgba(243,240,232,0.19);stroke-width:1.2;}
      .box2{fill:rgba(17,24,32,0.58);stroke:rgba(243,240,232,0.19);stroke-width:1.2;}
      .muted{fill:rgba(243,240,232,0.62);font-size:18px;font-family:Inter,Arial,sans-serif;}
      .tiny{fill:rgba(243,240,232,0.50);font-size:14px;font-family:Inter,Arial,sans-serif;letter-spacing:1px;}
      .title{fill:#F3F0E8;font-size:31px;font-weight:800;font-family:Inter,Arial,sans-serif;letter-spacing:-1.2px;}
      .h1{fill:#F3F0E8;font-size:52px;font-weight:850;font-family:Inter,Arial,sans-serif;letter-spacing:-3px;}
      .h2{fill:#F3F0E8;font-size:22px;font-weight:750;font-family:Inter,Arial,sans-serif;letter-spacing:-0.6px;}
      .h3{fill:#F3F0E8;font-size:18px;font-weight:750;font-family:Inter,Arial,sans-serif;letter-spacing:-0.4px;}
      .body{fill:rgba(243,240,232,0.70);font-size:17px;font-family:Inter,Arial,sans-serif;}
      .small{fill:rgba(243,240,232,0.58);font-size:15px;font-family:Inter,Arial,sans-serif;}
      .chip{fill:rgba(243,240,232,0.07);stroke:rgba(243,240,232,0.19);stroke-width:1;}
      .num{fill:rgba(17,24,32,0.62);stroke:rgba(243,240,232,0.25);stroke-width:1;}
    </style>
  </defs>
  <rect width="1600" height="1000" fill="url(#bg)"/>
  <circle cx="160" cy="120" r="330" fill="url(#lava1)" filter="url(#blur)"/>
  <circle cx="1460" cy="250" r="360" fill="url(#lava2)" filter="url(#blur)"/>
  <circle cx="900" cy="1020" r="420" fill="url(#lava3)" filter="url(#blur)"/>

  <rect x="35" y="35" width="1530" height="930" rx="34" fill="rgba(17,24,32,0.76)" stroke="rgba(243,240,232,0.22)"/>
  <line x1="35" y1="125" x2="1565" y2="125" stroke="rgba(243,240,232,0.16)"/>
  <rect x="62" y="66" width="48" height="48" rx="14" fill="rgba(243,240,232,0.04)" stroke="rgba(243,240,232,0.36)"/>
  <text x="76" y="98" fill="#4FBDB5" font-family="Inter,Arial" font-size="20" font-weight="800">T1</text>
  <text x="132" y="84" class="title">TheOne Control Room — mapa visual desta semana</text>
  <text x="132" y="111" class="small">Objetivo: provar localmente que isto é cockpit vivo, não dashboard genérico.</text>
  <rect x="1110" y="66" width="136" height="36" rx="18" class="chip"/><text x="1128" y="89" class="small">em construção</text>
  <rect x="1260" y="66" width="120" height="36" rx="18" class="chip"/><text x="1279" y="89" class="small">local primeiro</text>
  <rect x="1394" y="66" width="134" height="36" rx="18" class="chip"/><text x="1413" y="89" class="small">demo navegável</text>

  <!-- Columns -->
  <line x1="335" y1="125" x2="335" y2="905" stroke="rgba(243,240,232,0.16)"/>
  <line x1="1225" y1="125" x2="1225" y2="905" stroke="rgba(243,240,232,0.16)"/>

  <!-- Left rail -->
  <text x="62" y="163" class="tiny">AS 7 COISAS GIGANTES</text>
  <rect x="62" y="182" width="270" height="105" rx="22" class="box"/>
  <text x="82" y="216" class="h2">Missão da semana</text>
  <text x="82" y="247" class="small">Provar que não é admin.</text>
  <text x="82" y="272" class="small">Visual vivo + decisão + chatbot.</text>

  <g transform="translate(62 310)">
    <g><rect width="270" height="72" rx="16" class="box"/><rect x="13" y="14" width="30" height="30" rx="9" class="num"/><text x="23" y="35" fill="#F3F0E8" font-family="Inter,Arial" font-size="14" font-weight="800">1</text><text x="56" y="24" class="h3">Fundação local</text><text x="56" y="48" class="small">Repo, skeleton, Docker, health.</text><circle cx="58" cy="61" r="5" fill="#E87545"/><text x="70" y="65" class="tiny" font-size="11">FAZER PRIMEIRO</text></g>
    <g transform="translate(0 84)"><rect width="270" height="72" rx="16" class="box"/><rect x="13" y="14" width="30" height="30" rx="9" class="num"/><text x="23" y="35" fill="#F3F0E8" font-family="Inter,Arial" font-size="14" font-weight="800">2</text><text x="56" y="24" class="h3">Living UI</text><text x="56" y="48" class="small">Lava, cockpit, touch, boneco.</text><circle cx="58" cy="61" r="5" fill="#8E7DE8"/><text x="70" y="65" class="tiny" font-size="11">PROVAR SENSAÇÃO</text></g>
    <g transform="translate(0 168)"><rect width="270" height="72" rx="16" class="box"/><rect x="13" y="14" width="30" height="30" rx="9" class="num"/><text x="23" y="35" fill="#F3F0E8" font-family="Inter,Arial" font-size="14" font-weight="800">3</text><text x="56" y="24" class="h3">Signal Engine</text><text x="56" y="48" class="small">Eventos viram prioridade.</text><circle cx="58" cy="61" r="5" fill="#65A6E8"/><text x="70" y="65" class="tiny" font-size="11">CÉREBRO VISUAL</text></g>
    <g transform="translate(0 252)"><rect width="270" height="72" rx="16" class="box"/><rect x="13" y="14" width="30" height="30" rx="9" class="num"/><text x="23" y="35" fill="#F3F0E8" font-family="Inter,Arial" font-size="14" font-weight="800">4</text><text x="56" y="24" class="h3">CRM / Booking Core</text><text x="56" y="48" class="small">Tenant, serviço, local, marcação.</text><circle cx="58" cy="61" r="5" fill="#D6A44C"/><text x="70" y="65" class="tiny" font-size="11">VALOR REAL</text></g>
    <g transform="translate(0 336)"><rect width="270" height="72" rx="16" class="box"/><rect x="13" y="14" width="30" height="30" rx="9" class="num"/><text x="23" y="35" fill="#F3F0E8" font-family="Inter,Arial" font-size="14" font-weight="800">5</text><text x="56" y="24" class="h3">Booking público</text><text x="56" y="48" class="small">/book/slug até confirmação.</text><circle cx="58" cy="61" r="5" fill="#77B98A"/><text x="70" y="65" class="tiny" font-size="11">PRIMEIRO FLUXO</text></g>
    <g transform="translate(0 420)"><rect width="270" height="72" rx="16" class="box"/><rect x="13" y="14" width="30" height="30" rx="9" class="num"/><text x="23" y="35" fill="#F3F0E8" font-family="Inter,Arial" font-size="14" font-weight="800">6</text><text x="56" y="24" class="h3">Chatbot do dashboard</text><text x="56" y="48" class="small">Pergunta, filtra, muda vista.</text><circle cx="58" cy="61" r="5" fill="#65A6E8"/><text x="70" y="65" class="tiny" font-size="11">CONVERSÁVEL</text></g>
    <g transform="translate(0 504)"><rect width="270" height="72" rx="16" class="box"/><rect x="13" y="14" width="30" height="30" rx="9" class="num"/><text x="23" y="35" fill="#F3F0E8" font-family="Inter,Arial" font-size="14" font-weight="800">7</text><text x="56" y="24" class="h3">QA → VPS ready</text><text x="56" y="48" class="small">Build, smoke, envs, deploy path.</text><circle cx="58" cy="61" r="5" fill="#4FBDB5"/><text x="70" y="65" class="tiny" font-size="11">ORACLE DEPOIS</text></g>
  </g>

  <!-- Main hero -->
  <rect x="365" y="155" width="835" height="225" rx="28" fill="rgba(232,117,69,0.16)" stroke="rgba(232,117,69,0.54)"/>
  <circle cx="1150" cy="170" r="180" fill="url(#lava2)" filter="url(#blur)"/>
  <text x="393" y="191" class="tiny">FAZER AGORA</text>
  <text x="393" y="246" class="h1">Primeira tela viva</text>
  <text x="393" y="302" class="h1">com mocks.</text>
  <text x="393" y="338" class="body">Antes de backend pesado/VPS, validar a experiência:</text>
  <text x="393" y="363" class="body">sinais claros, visual vivo e chatbot ligado ao estado.</text>
  <rect x="890" y="185" width="280" height="50" rx="15" class="box2"/><text x="908" y="216" class="small">Desbloqueia: demo local + UI</text>
  <rect x="890" y="248" width="280" height="50" rx="15" class="box2"/><text x="908" y="279" class="small">Se ignorar: vira admin genérico</text>
  <rect x="890" y="311" width="280" height="50" rx="15" class="box2"/><text x="908" y="342" class="small">Paralelo: schema de eventos</text>

  <!-- Broadway strip -->
  <rect x="365" y="398" width="835" height="58" rx="20" class="box2"/>
  <text x="392" y="435" fill="#F3F0E8" font-size="18" font-weight="800" font-family="Inter,Arial">AGORA: protótipo local vivo</text>
  <text x="650" y="435" class="small">BLOQUEADO: dados reais</text>
  <text x="850" y="435" class="small">PODE JÁ: UI + mocks + tools</text>
  <text x="1070" y="435" class="small">RISCO: admin genérico</text>

  <!-- Matrix lanes -->
  <g transform="translate(365 485)">
    <g><rect width="112" height="150" rx="18" class="box"/><rect width="112" height="5" rx="3" fill="#E87545"/><text x="12" y="28" class="tiny" font-size="10">01 / BASE</text><text x="12" y="55" class="h3" font-size="15">Local</text><text x="12" y="75" class="h3" font-size="15">foundation</text><text x="12" y="104" class="small" font-size="12">Next + API</text><rect x="12" y="128" width="88" height="7" rx="4" fill="rgba(243,240,232,.12)"/><rect x="12" y="128" width="16" height="7" rx="4" fill="#E87545"/></g>
    <g transform="translate(123 0)"><rect width="112" height="150" rx="18" class="box"/><rect width="112" height="5" rx="3" fill="#8E7DE8"/><text x="12" y="28" class="tiny" font-size="10">02 / UI</text><text x="12" y="55" class="h3" font-size="15">Lava</text><text x="12" y="75" class="h3" font-size="15">cockpit</text><text x="12" y="104" class="small" font-size="12">Touch</text><rect x="12" y="128" width="88" height="7" rx="4" fill="rgba(243,240,232,.12)"/><rect x="12" y="128" width="22" height="7" rx="4" fill="#8E7DE8"/></g>
    <g transform="translate(246 0)"><rect width="112" height="150" rx="18" class="box"/><rect width="112" height="5" rx="3" fill="#65A6E8"/><text x="12" y="28" class="tiny" font-size="10">03 / SINAL</text><text x="12" y="55" class="h3" font-size="15">Signal</text><text x="12" y="75" class="h3" font-size="15">Engine</text><text x="12" y="104" class="small" font-size="12">Prioridade</text><rect x="12" y="128" width="88" height="7" rx="4" fill="rgba(243,240,232,.12)"/><rect x="12" y="128" width="11" height="7" rx="4" fill="#65A6E8"/></g>
    <g transform="translate(369 0)"><rect width="112" height="150" rx="18" class="box"/><rect width="112" height="5" rx="3" fill="#D6A44C"/><text x="12" y="28" class="tiny" font-size="10">04 / CORE</text><text x="12" y="55" class="h3" font-size="15">CRM</text><text x="12" y="75" class="h3" font-size="15">seed</text><text x="12" y="104" class="small" font-size="12">Tenant + local</text><rect x="12" y="128" width="88" height="7" rx="4" fill="rgba(243,240,232,.12)"/><rect x="12" y="128" width="9" height="7" rx="4" fill="#D6A44C"/></g>
    <g transform="translate(492 0)"><rect width="112" height="150" rx="18" class="box"/><rect width="112" height="5" rx="3" fill="#77B98A"/><text x="12" y="28" class="tiny" font-size="10">05 / VALOR</text><text x="12" y="55" class="h3" font-size="15">Booking</text><text x="12" y="75" class="h3" font-size="15">E2E</text><text x="12" y="104" class="small" font-size="12">/book/slug</text><rect x="12" y="128" width="88" height="7" rx="4" fill="rgba(243,240,232,.12)"/><rect x="12" y="128" width="5" height="7" rx="4" fill="#77B98A"/></g>
    <g transform="translate(615 0)"><rect width="112" height="150" rx="18" class="box"/><rect width="112" height="5" rx="3" fill="#65A6E8"/><text x="12" y="28" class="tiny" font-size="10">06 / CHAT</text><text x="12" y="55" class="h3" font-size="15">Chat</text><text x="12" y="75" class="h3" font-size="15">tools</text><text x="12" y="104" class="small" font-size="12">Controla UI</text><rect x="12" y="128" width="88" height="7" rx="4" fill="rgba(243,240,232,.12)"/><rect x="12" y="128" width="7" height="7" rx="4" fill="#65A6E8"/></g>
    <g transform="translate(738 0)"><rect width="112" height="150" rx="18" class="box"/><rect width="112" height="5" rx="3" fill="#4FBDB5"/><text x="12" y="28" class="tiny" font-size="10">07 / SAÍDA</text><text x="12" y="55" class="h3" font-size="15">QA +</text><text x="12" y="75" class="h3" font-size="15">VPS</text><text x="12" y="104" class="small" font-size="12">Deploy path</text><rect x="12" y="128" width="88" height="7" rx="4" fill="rgba(243,240,232,.12)"/><rect x="12" y="128" width="6" height="7" rx="4" fill="#4FBDB5"/></g>
  </g>

  <!-- Lower modules -->
  <rect x="365" y="665" width="420" height="220" rx="24" class="box"/>
  <text x="390" y="704" class="h2">Ritmo da semana</text>
  <text x="390" y="736" class="small">Dia 1: skeleton local</text>
  <text x="390" y="762" class="small">Dia 2: primeira tela viva</text>
  <text x="390" y="788" class="small">Dia 3: Signal Engine v0</text>
  <text x="390" y="814" class="small">Dia 4: CRM/booking seed</text>
  <text x="390" y="840" class="small">Dia 5: booking público mínimo</text>
  <text x="390" y="866" class="small">Dia 6-7: chatbot + QA/VPS path</text>

  <rect x="805" y="665" width="395" height="220" rx="24" class="box"/>
  <text x="830" y="704" class="h2">Zonas touchscreen</text>
  <g transform="translate(830 728)">
    <rect width="160" height="48" rx="14" class="box2"/><text x="18" y="31" class="small">Foco</text>
    <rect x="175" width="160" height="48" rx="14" class="box2"/><text x="193" y="31" class="small">Bloqueios</text>
    <rect y="61" width="160" height="48" rx="14" class="box2"/><text x="18" y="92" class="small">Booking</text>
    <rect x="175" y="61" width="160" height="48" rx="14" class="box2"/><text x="193" y="92" class="small">Assistant</text>
    <rect y="122" width="160" height="48" rx="14" class="box2"/><text x="18" y="153" class="small">Feito</text>
    <rect x="175" y="122" width="160" height="48" rx="14" class="box2"/><text x="193" y="153" class="small">Demo</text>
  </g>

  <!-- Right rail -->
  <text x="1255" y="163" class="tiny">CHATBOT DO COCKPIT</text>
  <rect x="1255" y="182" width="300" height="295" rx="24" fill="rgba(79,189,181,0.065)" stroke="rgba(79,189,181,0.38)"/>
  <rect x="1275" y="212" width="220" height="40" rx="16" fill="rgba(243,240,232,0.10)"/><text x="1290" y="237" class="small">Mostra o que importa agora.</text>
  <rect x="1275" y="265" width="260" height="56" rx="16" class="box2"/><text x="1290" y="288" class="small">Agora: primeira tela viva</text><text x="1290" y="310" class="small">com dados mockados.</text>
  <rect x="1275" y="335" width="218" height="40" rx="16" fill="rgba(243,240,232,0.10)"/><text x="1290" y="360" class="small">Porque booking bloqueia?</text>
  <rect x="1275" y="388" width="260" height="56" rx="16" class="box2"/><text x="1290" y="411" class="small">Falta seed: tenant, serviço,</text><text x="1290" y="433" class="small">local e slug demo.</text>

  <text x="1255" y="520" class="tiny">BLOQUEIOS ATIVOS</text>
  <rect x="1255" y="540" width="300" height="68" rx="16" class="box"/><text x="1273" y="568" class="h3" font-size="16">Dados reais ainda não existem</text><text x="1273" y="592" class="small">Começar com mocks; depois seed local.</text>
  <rect x="1255" y="620" width="300" height="68" rx="16" class="box"/><text x="1273" y="648" class="h3" font-size="16">Chatbot precisa de tools</text><text x="1273" y="672" class="small">Sem tools, não controla nada.</text>
  <rect x="1255" y="700" width="300" height="68" rx="16" class="box"/><text x="1273" y="728" class="h3" font-size="16">VPS ainda é cedo</text><text x="1273" y="752" class="small">Primeiro provar local.</text>

  <text x="1255" y="805" class="tiny">RISCO PRINCIPAL</text>
  <rect x="1255" y="825" width="300" height="78" rx="16" fill="rgba(232,117,69,0.12)" stroke="rgba(232,117,69,0.42)"/>
  <text x="1273" y="856" class="h3" font-size="16">Virar admin genérico</text>
  <text x="1273" y="881" class="small">Mitigação: Signal Board domina.</text>

  <line x1="35" y1="905" x2="1565" y2="905" stroke="rgba(243,240,232,0.16)"/>
  <text x="62" y="940" class="small">Regra: uma tela = uma decisão principal. Um bloco = uma pergunta. Uma linha = uma ideia.</text>
  <text x="1190" y="940" class="small">Maquete de direção, não implementação final.</text>
</svg>
